<svg width="95" height="30" viewBox="0 0 95 30" fill="none" xmlns="http://www.w3.org/2000/svg">
<path d="M54.2675 9.05469V13.5625C54.0904 13.776 53.8169 14.0078 53.4471 14.2578C53.0774 14.5026 52.6008 14.7135 52.0175 14.8906C51.4341 15.0677 50.7284 15.1562 49.9003 15.1562C49.1659 15.1562 48.4966 15.0365 47.8925 14.7969C47.2883 14.5521 46.7675 14.1953 46.33 13.7266C45.8977 13.2578 45.5643 12.6849 45.33 12.0078C45.0956 11.3255 44.9784 10.5469 44.9784 9.67188V8.96094C44.9784 8.08594 45.0904 7.30729 45.3143 6.625C45.5435 5.94271 45.869 5.36719 46.2909 4.89844C46.7128 4.42969 47.2154 4.07292 47.7987 3.82812C48.382 3.58333 49.0305 3.46094 49.744 3.46094C50.7336 3.46094 51.5461 3.6224 52.1815 3.94531C52.8169 4.26302 53.3013 4.70573 53.6346 5.27344C53.9732 5.83594 54.1815 6.48177 54.2596 7.21094H51.9862C51.9289 6.82552 51.8195 6.48958 51.6581 6.20312C51.4966 5.91667 51.2649 5.69271 50.9628 5.53125C50.6659 5.36979 50.2805 5.28906 49.8065 5.28906C49.4159 5.28906 49.0669 5.36979 48.7596 5.53125C48.4576 5.6875 48.2024 5.91927 47.994 6.22656C47.7857 6.53385 47.6268 6.91406 47.5175 7.36719C47.4081 7.82031 47.3534 8.34635 47.3534 8.94531V9.67188C47.3534 10.2656 47.4107 10.7917 47.5253 11.25C47.6399 11.7031 47.8091 12.0859 48.0331 12.3984C48.2622 12.7057 48.5435 12.9375 48.8768 13.0938C49.2102 13.25 49.5982 13.3281 50.0409 13.3281C50.4107 13.3281 50.718 13.2969 50.9628 13.2344C51.2128 13.1719 51.4133 13.0964 51.5643 13.0078C51.7206 12.9141 51.8404 12.8255 51.9237 12.7422V10.7266H49.7831V9.05469H54.2675ZM60.7831 5.57031L57.6893 15H55.1971L59.4237 3.625H61.0096L60.7831 5.57031ZM63.3534 15L60.2518 5.57031L60.0018 3.625H61.6034L65.8534 15H63.3534ZM63.2128 10.7656V12.6016H57.205V10.7656H63.2128ZM67.9784 3.625H69.9628L72.8846 11.9766L75.8065 3.625H77.7909L73.6815 15H72.0878L67.9784 3.625ZM66.9081 3.625H68.8846L69.244 11.7656V15H66.9081V3.625ZM76.8846 3.625H78.869V15H76.5253V11.7656L76.8846 3.625ZM88.5565 13.1719V15H82.5018V13.1719H88.5565ZM83.2675 3.625V15H80.9237V3.625H83.2675ZM87.7675 8.25781V10.0391H82.5018V8.25781H87.7675ZM88.5487 3.625V5.46094H82.5018V3.625H88.5487Z" fill="black"/>
<path d="M54.2675 22.9833V27.4911C54.0904 27.7046 53.8169 27.9364 53.4471 28.1864C53.0774 28.4312 52.6008 28.6421 52.0175 28.8192C51.4341 28.9963 50.7284 29.0848 49.9003 29.0848C49.1659 29.0848 48.4966 28.965 47.8925 28.7255C47.2883 28.4807 46.7675 28.1239 46.33 27.6552C45.8977 27.1864 45.5643 26.6135 45.33 25.9364C45.0956 25.2541 44.9784 24.4755 44.9784 23.6005V22.8895C44.9784 22.0145 45.0904 21.2359 45.3143 20.5536C45.5435 19.8713 45.869 19.2958 46.2909 18.827C46.7128 18.3583 47.2154 18.0015 47.7987 17.7567C48.382 17.5119 49.0305 17.3895 49.744 17.3895C50.7336 17.3895 51.5461 17.551 52.1815 17.8739C52.8169 18.1916 53.3013 18.6343 53.6346 19.202C53.9732 19.7645 54.1815 20.4104 54.2596 21.1395H51.9862C51.9289 20.7541 51.8195 20.4182 51.6581 20.1317C51.4966 19.8453 51.2649 19.6213 50.9628 19.4598C50.6659 19.2984 50.2805 19.2177 49.8065 19.2177C49.4159 19.2177 49.0669 19.2984 48.7596 19.4598C48.4576 19.6161 48.2024 19.8479 47.994 20.1552C47.7857 20.4624 47.6268 20.8427 47.5175 21.2958C47.4081 21.7489 47.3534 22.2749 47.3534 22.8739V23.6005C47.3534 24.1942 47.4107 24.7203 47.5253 25.1786C47.6399 25.6317 47.8091 26.0145 48.0331 26.327C48.2622 26.6343 48.5435 26.8661 48.8768 27.0223C49.2102 27.1786 49.5982 27.2567 50.0409 27.2567C50.4107 27.2567 50.718 27.2255 50.9628 27.163C51.2128 27.1005 51.4133 27.0249 51.5643 26.9364C51.7206 26.8427 51.8404 26.7541 51.9237 26.6708V24.6552H49.7831V22.9833H54.2675ZM63.3993 17.5536H65.7353V25.0692C65.7353 25.9442 65.5478 26.6812 65.1728 27.2802C64.803 27.8791 64.29 28.3296 63.6337 28.6317C62.9827 28.9338 62.2327 29.0848 61.3837 29.0848C60.5347 29.0848 59.7795 28.9338 59.1181 28.6317C58.4618 28.3296 57.9462 27.8791 57.5712 27.2802C57.2014 26.6812 57.0165 25.9442 57.0165 25.0692V17.5536H59.3603V25.0692C59.3603 25.5796 59.441 25.9963 59.6025 26.3192C59.7639 26.6421 59.9957 26.8791 60.2978 27.0302C60.6051 27.1812 60.967 27.2567 61.3837 27.2567C61.8108 27.2567 62.1728 27.1812 62.4696 27.0302C62.7717 26.8791 63.0009 26.6421 63.1571 26.3192C63.3186 25.9963 63.3993 25.5796 63.3993 25.0692V17.5536ZM68.625 17.5536H72.8671C73.7369 17.5536 74.4843 17.6838 75.1093 17.9442C75.7395 18.2046 76.2239 18.59 76.5625 19.1005C76.901 19.6109 77.0703 20.2385 77.0703 20.9833C77.0703 21.5927 76.9661 22.1161 76.7578 22.5536C76.5546 22.9859 76.2656 23.3479 75.8906 23.6395C75.5208 23.926 75.0859 24.1552 74.5859 24.327L73.8437 24.7177H70.1562L70.1406 22.8895H72.8828C73.2942 22.8895 73.6354 22.8166 73.9062 22.6708C74.177 22.5249 74.3802 22.3218 74.5156 22.0614C74.6562 21.801 74.7265 21.4989 74.7265 21.1552C74.7265 20.7906 74.6588 20.4755 74.5234 20.2098C74.388 19.9442 74.1822 19.7411 73.9062 19.6005C73.6302 19.4598 73.2838 19.3895 72.8671 19.3895H70.9687V28.9286H68.625V17.5536ZM74.9843 28.9286L72.3906 23.8583L74.8671 23.8427L77.4921 28.8192V28.9286H74.9843ZM86.1162 17.5536H88.4521V25.0692C88.4521 25.9442 88.2646 26.6812 87.8896 27.2802C87.5199 27.8791 87.0068 28.3296 86.3506 28.6317C85.6995 28.9338 84.9495 29.0848 84.1006 29.0848C83.2516 29.0848 82.4964 28.9338 81.835 28.6317C81.1787 28.3296 80.6631 27.8791 80.2881 27.2802C79.9183 26.6812 79.7334 25.9442 79.7334 25.0692V17.5536H82.0771V25.0692C82.0771 25.5796 82.1579 25.9963 82.3193 26.3192C82.4808 26.6421 82.7126 26.8791 83.0146 27.0302C83.3219 27.1812 83.6839 27.2567 84.1006 27.2567C84.5277 27.2567 84.8896 27.1812 85.1865 27.0302C85.4886 26.8791 85.7178 26.6421 85.874 26.3192C86.0355 25.9963 86.1162 25.5796 86.1162 25.0692V17.5536Z" fill="black"/>
<path d="M43.4601 3.65637H0V28.9655H43.4601V3.65637Z" fill="#38454F"/>
<path d="M39.5798 25.1308H3.88037V7.49109H20.1779V13.6266H39.5798V25.1308Z" fill="#CBD4D8"/>
<path d="M15.5214 15.1605H13.1931V12.8597H10.0888V15.1605H7.76062V18.2283H10.0888V20.5291H13.1931V18.2283H15.5214V15.1605Z" fill="#546A79"/>
<path d="M34.5353 21.2961C35.6068 21.2961 36.4755 20.4376 36.4755 19.3787C36.4755 18.3198 35.6068 17.4613 34.5353 17.4613C33.4637 17.4613 32.5951 18.3198 32.5951 19.3787C32.5951 20.4376 33.4637 21.2961 34.5353 21.2961Z" fill="#DD352E"/>
<path d="M27.5505 21.2961C28.6221 21.2961 29.4907 20.4376 29.4907 19.3787C29.4907 18.3198 28.6221 17.4613 27.5505 17.4613C26.479 17.4613 25.6104 18.3198 25.6104 19.3787C25.6104 20.4376 26.479 21.2961 27.5505 21.2961Z" fill="#DD352E"/>
<path d="M18.6259 19.7622H22.5062" stroke="#AFB6BB" stroke-width="2" stroke-miterlimit="10" stroke-linecap="round"/>
</svg>
